<?xml version="1.0" encoding="utf-8"?>
<!-- Generator: Adobe Illustrator 25.2.1, SVG Export Plug-In . SVG Version: 6.00 Build 0)  -->
<svg version="1.1"
	 id="svg2" inkscape:version="0.43" sodipodi:docbase="/home/sdeibel" sodipodi:docname="logo-python-generic.svg" sodipodi:version="0.32" xmlns:cc="http://web.resource.org/cc/" xmlns:dc="http://purl.org/dc/elements/1.1/" xmlns:inkscape="http://www.inkscape.org/namespaces/inkscape" xmlns:rdf="http://www.w3.org/1999/02/22-rdf-syntax-ns#" xmlns:sodipodi="http://inkscape.sourceforge.net/DTD/sodipodi-0.dtd" xmlns:svg="http://www.w3.org/2000/svg"
	 xmlns="http://www.w3.org/2000/svg" xmlns:xlink="http://www.w3.org/1999/xlink" x="0px" y="0px" viewBox="0 0 150 150"
	 style="enable-background:new 0 0 150 150;" xml:space="preserve">
<style type="text/css">
	.st0{fill:url(#path1948_1_);}
	.st1{fill:url(#path1950_1_);}
	.st2{opacity:0.4438;fill:url(#path1894_1_);enable-background:new    ;}
</style>
<sodipodi:namedview  bordercolor="#666666" borderopacity="1.0" id="base" inkscape:current-layer="svg2" inkscape:cx="243.02499" inkscape:cy="71.887497" inkscape:pageopacity="0.0" inkscape:pageshadow="2" inkscape:window-height="543" inkscape:window-width="791" inkscape:window-x="0" inkscape:window-y="0" inkscape:zoom="1.4340089" pagecolor="#ffffff">
	</sodipodi:namedview>
<g id="g2303">
	
		<linearGradient id="path1948_1_" gradientUnits="userSpaceOnUse" x1="616.702" y1="-269.121" x2="725.7184" y2="-362.9149" gradientTransform="matrix(0.5625 0 0 -0.568 -344.0559 -138.2659)">
		<stop  offset="0" style="stop-color:#5A9FD4"/>
		<stop  offset="1" style="stop-color:#306998"/>
	</linearGradient>
	<path id="path1948" class="st0" d="M60.5,11.4c-4.6,0-9,0.4-12.8,1.1c-11.3,2-13.4,6.2-13.4,13.9v10.2h26.8V40H34.3H24.2
		c-7.8,0-14.6,4.7-16.8,13.6C5,63.9,4.9,70.2,7.5,80.9c1.9,7.9,6.5,13.6,14.3,13.6h9.2V82.2c0-8.8,7.7-16.7,16.7-16.7h26.8
		c7.5,0,13.4-6.1,13.4-13.6V26.4c0-7.3-6.1-12.7-13.4-13.9C69.9,11.7,65.1,11.4,60.5,11.4z M46,19.6c2.8,0,5,2.3,5,5.1
		c0,2.8-2.3,5.1-5,5.1c-2.8,0-5-2.3-5-5.1C41,21.9,43.2,19.6,46,19.6z"/>
	
		<linearGradient id="path1950_1_" gradientUnits="userSpaceOnUse" x1="767.8648" y1="-419.6829" x2="728.9351" y2="-364.6041" gradientTransform="matrix(0.5625 0 0 -0.568 -344.0559 -138.2659)">
		<stop  offset="0" style="stop-color:#FFD43B"/>
		<stop  offset="1" style="stop-color:#FFE873"/>
	</linearGradient>
	<path id="path1950" class="st1" d="M91.2,40V52c0,9.2-7.8,17-16.8,17H47.7c-7.3,0-13.4,6.3-13.4,13.6v25.5
		c0,7.3,6.3,11.5,13.4,13.6c8.5,2.5,16.6,2.9,26.8,0c6.8-2,13.4-5.9,13.4-13.6V97.9H61.1v-3.4h26.8h13.4c7.8,0,10.7-5.4,13.4-13.6
		c2.8-8.4,2.7-16.5,0-27.2c-1.9-7.8-5.6-13.6-13.4-13.6H91.2z M76.2,104.7c2.8,0,5,2.3,5,5.1c0,2.8-2.3,5.1-5,5.1
		c-2.8,0-5-2.3-5-5.1C71.1,107,73.4,104.7,76.2,104.7z"/>
	
		<radialGradient id="path1894_1_" cx="-2708.0896" cy="-253.6425" r="29.0369" gradientTransform="matrix(1.749057e-08 -0.2399 -1.0547 -3.791546e-07 -206.1005 -510.7101)" gradientUnits="userSpaceOnUse">
		<stop  offset="0" style="stop-color:#B8B8B8;stop-opacity:0.498"/>
		<stop  offset="1" style="stop-color:#7F7F7F;stop-opacity:0"/>
	</radialGradient>
	<path id="path1894" class="st2" d="M97.3,139.1c0,3.8-16.1,7-35.9,7s-35.9-3.1-35.9-7c0-3.8,16.1-7,35.9-7S97.3,135.2,97.3,139.1z"
		/>
</g>
</svg>
